<?xml version="1.0" standalone="no"?><!DOCTYPE svg PUBLIC "-//W3C//DTD SVG 1.1//EN" "http://www.w3.org/Graphics/SVG/1.1/DTD/svg11.dtd"><svg t="1729577796770" class="icon" viewBox="0 0 1260 1024" version="1.1" xmlns="http://www.w3.org/2000/svg" p-id="36826" xmlns:xlink="http://www.w3.org/1999/xlink" width="157.5" height="128"><path d="M551.249347 1024a38.587454 38.587454 0 0 1-35.437458-33.074961L377.212053 181.375998 236.24972 527.088088a39.374953 39.374953 0 0 1-39.374953 24.412471h-157.499814a39.374953 39.374953 0 0 1 0-78.749906h131.512345L357.524577 24.663683A39.374953 39.374953 0 0 1 398.474528 0.251212a39.374953 39.374953 0 0 1 33.86246 33.074961l131.512344 787.499068 186.637279-557.54934A38.587454 38.587454 0 0 1 787.499068 236.500932a39.374953 39.374953 0 0 1 37.012456 25.98747l133.087342 381.937047 70.087417-148.837323A38.587454 38.587454 0 0 1 1063.123741 472.750653h157.499814a39.374953 39.374953 0 0 1 0 78.749906h-132.299844l-100.012381 213.412248a37.799955 37.799955 0 0 1-37.799955 22.837473 39.374953 39.374953 0 0 1-35.437459-26.774969L787.499068 397.938241l-199.237265 599.286791A39.374953 39.374953 0 0 1 551.249347 1024z" p-id="36827"></path></svg>
