<svg width="104" height="104" viewBox="0 0 104 104" fill="none" xmlns="http://www.w3.org/2000/svg">
<g id="Rectangle 34625460" filter="url(#filter0_d_6457_7186)">
<path d="M52 80C29.9086 80 12 62.0914 12 40V40C12 17.9086 29.9086 -7.8281e-07 52 -1.74846e-06V-1.74846e-06C74.0914 -2.7141e-06 92 17.9086 92 40V40C92 62.0914 74.0914 80 52 80V80Z" fill="white"/>
<path d="M14 40C14 19.0132 31.0132 2 52 2C72.9868 2 90 19.0132 90 40C90 60.9868 72.9868 78 52 78C31.0132 78 14 60.9868 14 40Z" stroke="white" stroke-width="4"/>
</g>
<defs>
<filter id="filter0_d_6457_7186" x="0" y="0" width="104" height="104" filterUnits="userSpaceOnUse" color-interpolation-filters="sRGB">
<feFlood flood-opacity="0" result="BackgroundImageFix"/>
<feColorMatrix in="SourceAlpha" type="matrix" values="0 0 0 0 0 0 0 0 0 0 0 0 0 0 0 0 0 0 127 0" result="hardAlpha"/>
<feOffset dy="12"/>
<feGaussianBlur stdDeviation="6"/>
<feComposite in2="hardAlpha" operator="out"/>
<feColorMatrix type="matrix" values="0 0 0 0 0 0 0 0 0 0 0 0 0 0 0 0 0 0 0.3 0"/>
<feBlend mode="normal" in2="BackgroundImageFix" result="effect1_dropShadow_6457_7186"/>
<feBlend mode="normal" in="SourceGraphic" in2="effect1_dropShadow_6457_7186" result="shape"/>
</filter>
</defs>
</svg>
