<svg width="40" height="40" viewBox="0 0 40 40" fill="none" xmlns="http://www.w3.org/2000/svg">
<g id="&#229;&#165;&#150;&#229;&#138;&#177;">
<path id="Vector" d="M6.51078 0L12.3213 9.89986C13.5354 9.25704 14.8281 8.76976 16.1679 8.44988L11.2052 0H15.9016L19.9982 6.9799L24.0949 0H28.7913L23.8346 8.44388C25.1927 8.76588 26.4837 9.25587 27.6853 9.88786L33.4857 0H38.18L31.0155 12.2158C33.4275 14.3949 35.1147 17.2395 35.8563 20.3774C36.5978 23.5153 36.3592 26.8003 35.1715 29.8025C33.9839 32.8048 31.9026 35.3844 29.2 37.2039C26.4975 39.0234 23.2995 39.9979 20.0246 40C16.7497 40.0021 13.5505 39.0316 10.8455 37.2156C8.14055 35.3995 6.05588 32.8225 4.8643 29.8218C3.67273 26.821 3.42975 23.5363 4.16716 20.3975C4.90458 17.2587 6.58803 14.412 8.99724 12.2298L1.81641 0H6.50875H6.51078ZM20.0125 11.9998C16.7772 11.9998 13.6745 13.2641 11.3868 15.5145C9.09918 17.7649 7.81399 20.8171 7.81399 23.9997C7.81399 27.1822 9.09918 30.2344 11.3868 32.4848C13.6745 34.7352 16.7772 35.9995 20.0125 35.9995C23.2477 35.9995 26.3504 34.7352 28.6381 32.4848C30.9257 30.2344 32.2109 27.1822 32.2109 23.9997C32.2109 20.8171 30.9257 17.7649 28.6381 15.5145C26.3504 13.2641 23.2477 11.9998 20.0125 11.9998ZM20.0125 15.9998C21.0805 15.9997 22.138 16.2066 23.1247 16.6086C24.1115 17.0105 25.0081 17.5998 25.7633 18.3427C26.5185 19.0855 27.1176 19.9675 27.5263 20.9381C27.935 21.9087 28.1454 22.949 28.1454 23.9997C28.1454 25.0503 27.935 26.0906 27.5263 27.0612C27.1176 28.0319 26.5185 28.9138 25.7633 29.6567C25.0081 30.3995 24.1115 30.9888 23.1247 31.3908C22.138 31.7928 21.0805 31.9996 20.0125 31.9995C17.8557 31.9994 15.7874 31.1565 14.2624 29.6562C12.7375 28.156 11.8808 26.1213 11.8808 23.9997C11.8808 21.8781 12.7375 19.8434 14.2624 18.3431C15.7874 16.8429 17.8557 15.9999 20.0125 15.9998ZM20.0125 19.9997C18.934 19.9997 17.8998 20.4211 17.1372 21.1713C16.3747 21.9214 15.9463 22.9388 15.9463 23.9997C15.9463 25.0605 16.3747 26.0779 17.1372 26.8281C17.8998 27.5782 18.934 27.9996 20.0125 27.9996C21.0909 27.9996 22.1251 27.5782 22.8877 26.8281C23.6502 26.0779 24.0786 25.0605 24.0786 23.9997C24.0786 22.9388 23.6502 21.9214 22.8877 21.1713C22.1251 20.4211 21.0909 19.9997 20.0125 19.9997Z" fill="white"/>
</g>
</svg>
